<svg xmlns="http://www.w3.org/2000/svg" viewBox="0 0 23.285 15.334"><defs><style>.a{fill:#ec840b;}</style></defs><path class="a" d="M1.136,952.4a.967.967,0,0,0-.284.028l10.28,9.456a.769.769,0,0,0,.965,0l10.336-9.456a.876.876,0,0,0-.284-.028Zm-1.079.823a1.021,1.021,0,0,0-.057.312V966.6a.84.84,0,0,0,.057.284l7.411-6.872C7.44,960.01.057,953.224.057,953.224Zm23.172,0-7.411,6.787,7.411,6.872a1.008,1.008,0,0,0,.057-.284V953.536A1.021,1.021,0,0,0,23.228,953.224ZM8.292,960.777l-7.44,6.9a1.01,1.01,0,0,0,.284.057H22.149a1.009,1.009,0,0,0,.284-.057l-7.44-6.9-2.1,1.931a1.875,1.875,0,0,1-2.527,0l-2.073-1.931Z" transform="translate(0 -952.4)"/></svg>