<svg xmlns="http://www.w3.org/2000/svg" viewBox="0 0 21.42 21.397"><defs><style>.a{fill:#ec840b;}</style></defs><path class="a" d="M19.336,20.434a2.2,2.2,0,0,1-1.962.992,14.571,14.571,0,0,1-2.5-.338,20.644,20.644,0,0,1-9.066-5.48A20.644,20.644,0,0,1,.325,6.542,16.876,16.876,0,0,1-.013,4.062a2.164,2.164,0,0,1,.97-1.939L3.731.273A1.433,1.433,0,0,1,5.805.814L8.06,5.167a1.459,1.459,0,0,1-.383,1.8L5.647,8.549a15.779,15.779,0,0,0,3.067,4.195,16.144,16.144,0,0,0,4.127,3.022l1.6-2.052a1.431,1.431,0,0,1,1.8-.383l4.375,2.255a1.433,1.433,0,0,1,.541,2.075Z" transform="translate(0.016 -0.032)"/></svg>